<mxfile host="app.diagrams.net" agent="Mozilla/5.0 (Windows NT 10.0; Win64; x64) AppleWebKit/537.36 (KHTML, like Gecko) Chrome/136.0.0.0 Safari/537.36" version="27.0.6">
  <diagram name="Page-1" id="mguCD1TWhY0KXkiRINTT">
    <mxGraphModel dx="2013" dy="721" grid="1" gridSize="10" guides="1" tooltips="1" connect="1" arrows="1" fold="1" page="1" pageScale="1" pageWidth="827" pageHeight="1169" math="0" shadow="0">
      <root>
        <mxCell id="0" />
        <mxCell id="1" parent="0" />
        <mxCell id="rfYCf7wR-yJmSS-nmkrS-1" value="" style="rounded=0;whiteSpace=wrap;html=1;" vertex="1" parent="1">
          <mxGeometry x="-56" y="200" width="940" height="390" as="geometry" />
        </mxCell>
        <mxCell id="rfYCf7wR-yJmSS-nmkrS-2" value="Our Application&lt;div&gt;&lt;br&gt;&lt;/div&gt;&lt;div&gt;&lt;br&gt;&lt;/div&gt;&lt;div&gt;&lt;br&gt;&lt;/div&gt;&lt;div&gt;&lt;br&gt;&lt;/div&gt;&lt;div&gt;&lt;br&gt;&lt;/div&gt;&lt;div&gt;&lt;br&gt;&lt;/div&gt;&lt;div&gt;The request travel throught our app&lt;/div&gt;" style="rounded=0;whiteSpace=wrap;html=1;" vertex="1" parent="1">
          <mxGeometry x="334" y="250" width="260" height="160" as="geometry" />
        </mxCell>
        <mxCell id="rfYCf7wR-yJmSS-nmkrS-3" value="Tomcat Threads pool&lt;div&gt;for the HTTP requests&lt;/div&gt;&lt;div&gt;&lt;br&gt;&lt;/div&gt;&lt;div&gt;&lt;br&gt;&lt;/div&gt;&lt;div&gt;&lt;br&gt;&lt;/div&gt;&lt;div&gt;&lt;br&gt;&lt;/div&gt;&lt;div&gt;The request is&amp;nbsp;&lt;/div&gt;&lt;div&gt;handled by a thread&lt;/div&gt;" style="ellipse;whiteSpace=wrap;html=1;" vertex="1" parent="1">
          <mxGeometry x="124" y="250" width="160" height="160" as="geometry" />
        </mxCell>
        <mxCell id="rfYCf7wR-yJmSS-nmkrS-4" value="External Request" style="text;html=1;align=center;verticalAlign=middle;whiteSpace=wrap;rounded=0;" vertex="1" parent="1">
          <mxGeometry x="-6" y="315" width="60" height="30" as="geometry" />
        </mxCell>
        <mxCell id="rfYCf7wR-yJmSS-nmkrS-5" value="" style="shape=waypoint;sketch=0;fillStyle=solid;size=6;pointerEvents=1;points=[];fillColor=#fa6800;resizable=0;rotatable=0;perimeter=centerPerimeter;snapToPoint=1;strokeWidth=5;fontColor=#000000;strokeColor=#C73500;" vertex="1" parent="1">
          <mxGeometry x="14" y="350" width="20" height="20" as="geometry" />
        </mxCell>
        <mxCell id="rfYCf7wR-yJmSS-nmkrS-6" value="" style="rounded=0;whiteSpace=wrap;html=1;fillColor=#60a917;fontColor=#ffffff;strokeColor=#2D7600;opacity=25;" vertex="1" parent="1">
          <mxGeometry x="364" y="315" width="30" height="30" as="geometry" />
        </mxCell>
        <mxCell id="rfYCf7wR-yJmSS-nmkrS-7" value="" style="shape=waypoint;sketch=0;fillStyle=solid;size=6;pointerEvents=1;points=[];fillColor=#fa6800;resizable=0;rotatable=0;perimeter=centerPerimeter;snapToPoint=1;strokeWidth=5;fontColor=#000000;strokeColor=#C73500;opacity=25;" vertex="1" parent="1">
          <mxGeometry x="369" y="320" width="20" height="20" as="geometry" />
        </mxCell>
        <mxCell id="rfYCf7wR-yJmSS-nmkrS-8" value="" style="rounded=0;whiteSpace=wrap;html=1;fillColor=#60a917;fontColor=#ffffff;strokeColor=#2D7600;opacity=75;" vertex="1" parent="1">
          <mxGeometry x="154" y="315" width="30" height="30" as="geometry" />
        </mxCell>
        <mxCell id="rfYCf7wR-yJmSS-nmkrS-9" value="" style="rounded=0;whiteSpace=wrap;html=1;fillColor=#60a917;fontColor=#ffffff;strokeColor=#2D7600;" vertex="1" parent="1">
          <mxGeometry x="189" y="315" width="30" height="30" as="geometry" />
        </mxCell>
        <mxCell id="rfYCf7wR-yJmSS-nmkrS-10" value="" style="rounded=0;whiteSpace=wrap;html=1;fillColor=#60a917;fontColor=#ffffff;strokeColor=#2D7600;" vertex="1" parent="1">
          <mxGeometry x="224" y="315" width="30" height="30" as="geometry" />
        </mxCell>
        <mxCell id="rfYCf7wR-yJmSS-nmkrS-11" value="" style="endArrow=classic;html=1;rounded=0;entryX=0.5;entryY=0;entryDx=0;entryDy=0;exitX=0.5;exitY=0;exitDx=0;exitDy=0;" edge="1" parent="1" source="rfYCf7wR-yJmSS-nmkrS-8" target="rfYCf7wR-yJmSS-nmkrS-6">
          <mxGeometry width="50" height="50" relative="1" as="geometry">
            <mxPoint x="284" y="329.5" as="sourcePoint" />
            <mxPoint x="734" y="330" as="targetPoint" />
            <Array as="points">
              <mxPoint x="169" y="305" />
              <mxPoint x="379" y="305" />
            </Array>
          </mxGeometry>
        </mxCell>
        <mxCell id="rfYCf7wR-yJmSS-nmkrS-12" value="" style="rounded=0;whiteSpace=wrap;html=1;fillColor=#60a917;fontColor=#ffffff;strokeColor=#2D7600;opacity=25;" vertex="1" parent="1">
          <mxGeometry x="544" y="315" width="30" height="30" as="geometry" />
        </mxCell>
        <mxCell id="rfYCf7wR-yJmSS-nmkrS-13" value="" style="shape=waypoint;sketch=0;fillStyle=solid;size=6;pointerEvents=1;points=[];fillColor=#0050ef;resizable=0;rotatable=0;perimeter=centerPerimeter;snapToPoint=1;strokeWidth=5;fontColor=#ffffff;strokeColor=#001DBC;opacity=25;" vertex="1" parent="1">
          <mxGeometry x="549" y="320" width="20" height="20" as="geometry" />
        </mxCell>
        <mxCell id="rfYCf7wR-yJmSS-nmkrS-14" value="" style="shape=waypoint;sketch=0;fillStyle=solid;size=6;pointerEvents=1;points=[];fillColor=#fa6800;resizable=0;rotatable=0;perimeter=centerPerimeter;snapToPoint=1;strokeWidth=5;fontColor=#000000;strokeColor=#C73500;opacity=75;" vertex="1" parent="1">
          <mxGeometry x="159" y="320" width="20" height="20" as="geometry" />
        </mxCell>
        <mxCell id="rfYCf7wR-yJmSS-nmkrS-15" value="" style="endArrow=classic;html=1;rounded=0;entryX=0.15;entryY=0.45;entryDx=0;entryDy=0;entryPerimeter=0;" edge="1" parent="1" target="rfYCf7wR-yJmSS-nmkrS-14">
          <mxGeometry width="50" height="50" relative="1" as="geometry">
            <mxPoint x="54" y="330" as="sourcePoint" />
            <mxPoint x="64" y="315" as="targetPoint" />
          </mxGeometry>
        </mxCell>
        <mxCell id="rfYCf7wR-yJmSS-nmkrS-16" value="" style="endArrow=classic;html=1;rounded=0;exitX=1;exitY=0.5;exitDx=0;exitDy=0;entryX=0;entryY=0.5;entryDx=0;entryDy=0;" edge="1" parent="1" source="rfYCf7wR-yJmSS-nmkrS-6" target="rfYCf7wR-yJmSS-nmkrS-12">
          <mxGeometry width="50" height="50" relative="1" as="geometry">
            <mxPoint x="294" y="345" as="sourcePoint" />
            <mxPoint x="344" y="295" as="targetPoint" />
            <Array as="points" />
          </mxGeometry>
        </mxCell>
        <mxCell id="rfYCf7wR-yJmSS-nmkrS-17" value="" style="endArrow=classic;html=1;rounded=0;entryX=0;entryY=0.5;entryDx=0;entryDy=0;exitX=1;exitY=0.5;exitDx=0;exitDy=0;edgeStyle=elbowEdgeStyle;" edge="1" parent="1" source="rfYCf7wR-yJmSS-nmkrS-12" target="rfYCf7wR-yJmSS-nmkrS-18">
          <mxGeometry width="50" height="50" relative="1" as="geometry">
            <mxPoint x="594" y="329.5" as="sourcePoint" />
            <mxPoint x="709" y="329.5" as="targetPoint" />
          </mxGeometry>
        </mxCell>
        <mxCell id="rfYCf7wR-yJmSS-nmkrS-18" value="" style="rounded=0;whiteSpace=wrap;html=1;fillColor=#60a917;fontColor=#ffffff;strokeColor=#2D7600;" vertex="1" parent="1">
          <mxGeometry x="654" y="315" width="30" height="30" as="geometry" />
        </mxCell>
        <mxCell id="rfYCf7wR-yJmSS-nmkrS-19" value="" style="shape=waypoint;sketch=0;fillStyle=solid;size=6;pointerEvents=1;points=[];fillColor=#0050ef;resizable=0;rotatable=0;perimeter=centerPerimeter;snapToPoint=1;strokeWidth=5;fontColor=#ffffff;strokeColor=#001DBC;" vertex="1" parent="1">
          <mxGeometry x="659" y="320" width="20" height="20" as="geometry" />
        </mxCell>
        <mxCell id="rfYCf7wR-yJmSS-nmkrS-20" value="" style="shape=waypoint;sketch=0;fillStyle=solid;size=6;pointerEvents=1;points=[];fillColor=#0050ef;resizable=0;rotatable=0;perimeter=centerPerimeter;snapToPoint=1;strokeWidth=5;fontColor=#ffffff;strokeColor=#001DBC;" vertex="1" parent="1">
          <mxGeometry x="794" y="350" width="20" height="20" as="geometry" />
        </mxCell>
        <mxCell id="rfYCf7wR-yJmSS-nmkrS-21" value="" style="endArrow=classic;html=1;rounded=0;entryX=0;entryY=0.5;entryDx=0;entryDy=0;exitX=1;exitY=0.5;exitDx=0;exitDy=0;edgeStyle=elbowEdgeStyle;" edge="1" parent="1" source="rfYCf7wR-yJmSS-nmkrS-18">
          <mxGeometry width="50" height="50" relative="1" as="geometry">
            <mxPoint x="684" y="329.5" as="sourcePoint" />
            <mxPoint x="764" y="329.5" as="targetPoint" />
          </mxGeometry>
        </mxCell>
        <mxCell id="rfYCf7wR-yJmSS-nmkrS-22" value="External Response" style="text;html=1;align=center;verticalAlign=middle;whiteSpace=wrap;rounded=0;" vertex="1" parent="1">
          <mxGeometry x="774" y="315" width="60" height="30" as="geometry" />
        </mxCell>
        <mxCell id="rfYCf7wR-yJmSS-nmkrS-23" value="" style="endArrow=classic;html=1;rounded=0;entryX=1;entryY=0.5;entryDx=0;entryDy=0;exitX=0.5;exitY=1;exitDx=0;exitDy=0;edgeStyle=elbowEdgeStyle;" edge="1" parent="1" source="rfYCf7wR-yJmSS-nmkrS-18" target="rfYCf7wR-yJmSS-nmkrS-24">
          <mxGeometry width="50" height="50" relative="1" as="geometry">
            <mxPoint x="654" y="525.5" as="sourcePoint" />
            <mxPoint x="734" y="525" as="targetPoint" />
            <Array as="points">
              <mxPoint x="669" y="445" />
            </Array>
          </mxGeometry>
        </mxCell>
        <mxCell id="rfYCf7wR-yJmSS-nmkrS-24" value="" style="rounded=0;whiteSpace=wrap;html=1;fillColor=#60a917;fontColor=#ffffff;strokeColor=#2D7600;" vertex="1" parent="1">
          <mxGeometry x="654" y="425" width="30" height="30" as="geometry" />
        </mxCell>
        <mxCell id="rfYCf7wR-yJmSS-nmkrS-25" value="" style="endArrow=classic;html=1;rounded=0;entryX=0.5;entryY=1;entryDx=0;entryDy=0;exitX=0;exitY=0.5;exitDx=0;exitDy=0;edgeStyle=elbowEdgeStyle;" edge="1" parent="1" source="rfYCf7wR-yJmSS-nmkrS-24" target="rfYCf7wR-yJmSS-nmkrS-3">
          <mxGeometry width="50" height="50" relative="1" as="geometry">
            <mxPoint x="564" y="515" as="sourcePoint" />
            <mxPoint x="374" y="630" as="targetPoint" />
            <Array as="points">
              <mxPoint x="204" y="455" />
            </Array>
          </mxGeometry>
        </mxCell>
        <mxCell id="rfYCf7wR-yJmSS-nmkrS-26" value="&lt;ul&gt;&lt;li&gt;&lt;font style=&quot;font-size: 16px;&quot;&gt;If the business logic take time, &lt;b style=&quot;&quot;&gt;the thread is blocked&lt;/b&gt; and cannot do something else&lt;br&gt;&lt;/font&gt;&lt;/li&gt;&lt;li&gt;&lt;font style=&quot;font-size: 16px;&quot;&gt;(in our case, the business logic part concerned is the &lt;b&gt;trackUserLocation&lt;/b&gt; and the &lt;b&gt;calculateRewards &lt;/b&gt;functions)&lt;/font&gt;&lt;/li&gt;&lt;li&gt;&lt;font style=&quot;font-size: 16px;&quot;&gt;&lt;font style=&quot;&quot;&gt;Perfomence wise : a lot of requests will &lt;b&gt;create&amp;nbsp;&lt;/b&gt;&lt;/font&gt;&lt;b style=&quot;&quot;&gt;bottlenecks&lt;/b&gt;&lt;/font&gt;&lt;/li&gt;&lt;/ul&gt;" style="text;html=1;align=left;verticalAlign=middle;whiteSpace=wrap;rounded=0;" vertex="1" parent="1">
          <mxGeometry y="510" width="840" height="50" as="geometry" />
        </mxCell>
        <mxCell id="rfYCf7wR-yJmSS-nmkrS-27" value="Business logic" style="text;html=1;align=center;verticalAlign=middle;whiteSpace=wrap;rounded=0;" vertex="1" parent="1">
          <mxGeometry x="409" y="306" width="110" height="30" as="geometry" />
        </mxCell>
        <mxCell id="rfYCf7wR-yJmSS-nmkrS-28" value="&lt;font style=&quot;color: rgb(255, 255, 255); font-size: 16px;&quot;&gt;&lt;b&gt;BEFORE&lt;/b&gt;&lt;/font&gt;" style="rounded=1;whiteSpace=wrap;html=1;fillColor=#fa6800;strokeColor=#C73500;fontColor=#000000;" vertex="1" parent="1">
          <mxGeometry x="790" y="210" width="84" height="40" as="geometry" />
        </mxCell>
      </root>
    </mxGraphModel>
  </diagram>
</mxfile>
